<svg width="16" height="14" viewBox="0 0 16 14" fill="none" xmlns="http://www.w3.org/2000/svg">
<path d="M15.6754 11.8253L8.9784 0.673169C8.43875 -0.223403 7.56185 -0.225375 7.0222 0.673169L0.3252 11.8253C-0.398936 13.0293 0.127115 14 1.49764 14H14.5041C15.8722 14 16.3976 13.0272 15.6754 11.8253ZM8.00039 12.0828C7.65703 12.0828 7.37938 11.797 7.37938 11.4437C7.37938 11.0903 7.65703 10.8046 8.00039 10.8046C8.34375 10.8046 8.6214 11.0903 8.6214 11.4437C8.6214 11.797 8.34375 12.0828 8.00039 12.0828ZM8.6214 8.88923C8.6214 9.23687 8.34375 9.52644 8.00039 9.52644C7.65509 9.52644 7.37938 9.24071 7.37938 8.88923V5.05074C7.37938 4.7031 7.65703 4.41352 8.00039 4.41352C8.34569 4.41352 8.6214 4.69925 8.6214 5.05074V8.88923Z" fill="#D99504"/>
</svg>
