<svg width="26" height="26" viewBox="0 0 26 26" fill="none" xmlns="http://www.w3.org/2000/svg">
<path fill-rule="evenodd" clip-rule="evenodd" d="M9.28646 8.35044H14.4239V10.9841L14.4982 10.9843C15.2137 9.7007 16.9631 8.3506 19.5718 8.3506C24.9967 8.35044 26 11.7264 26 16.1182V25.0643L20.6423 25.0645V17.134C20.6423 15.2435 20.6029 12.8099 17.8564 12.8099C15.0667 12.8099 14.6393 14.8678 14.6393 16.9964V25.0645H9.28646V8.3506V8.35044ZM5.57217 3.70773C5.57217 5.24557 4.32417 6.4935 2.78632 6.4935C1.24847 6.4935 0 5.2455 0 3.70773C0 2.16988 1.24847 0.921875 2.78632 0.921875C4.32417 0.921875 5.57217 2.16988 5.57217 3.70773ZM0 8.35044H5.57217V25.0644H0V8.35044Z" fill="white"/>
</svg>
