<svg width="180" height="71" viewBox="0 0 180 71" fill="none" xmlns="http://www.w3.org/2000/svg">
<path fill-rule="evenodd" clip-rule="evenodd" d="M151.65 0H65.1932C51.473 0 38.3147 5.45035 28.613 15.152C22.8369 20.9282 18.5677 27.9295 16.0586 35.5453L0 44.2915L13.7034 46.7276C13.5425 48.3839 13.4609 50.0539 13.4609 51.7323V52.4409C13.4609 57.3276 15.4022 62.0141 18.8576 65.4695C22.3129 68.9249 26.9995 70.8661 31.8861 70.8661H138.185C149.274 70.8661 159.909 66.4611 167.75 58.62C175.591 50.7789 179.996 40.1441 179.996 29.0551V28.3465C179.996 20.8285 177.01 13.6185 171.694 8.30249C166.378 2.98649 159.168 0 151.65 0Z" fill="white"/>
</svg>
