<svg width="26" height="22" viewBox="0 0 26 22" fill="none" xmlns="http://www.w3.org/2000/svg">
<path fill-rule="evenodd" clip-rule="evenodd" d="M25.9995 2.93467C25.0437 3.36211 24.014 3.64619 22.9387 3.77278C24.0403 3.11306 24.8828 2.06762 25.285 0.822898C24.2554 1.43185 23.111 1.87847 21.8985 2.11739C20.9236 1.08147 19.5389 0.4375 18.0048 0.4375C15.0594 0.4375 12.6746 2.8236 12.6746 5.76725C12.6746 6.18267 12.7207 6.58913 12.811 6.98108C8.379 6.75644 4.44983 4.63476 1.81959 1.40665C1.34776 2.22058 1.09809 3.14605 1.09809 4.08728V4.0879C1.09809 5.93619 2.0365 7.57092 3.46843 8.52424C2.59467 8.49826 1.77279 8.25459 1.05113 7.85975V7.92637C1.05113 10.5111 2.88834 12.6679 5.32959 13.1554C4.88234 13.2769 4.4102 13.3439 3.92379 13.3439C3.57927 13.3439 3.2473 13.3084 2.9172 13.2485C3.59908 15.3653 5.56726 16.9085 7.89806 16.9535C6.07051 18.3852 3.77513 19.2378 1.27281 19.2378C0.840919 19.2378 0.420186 19.2113 0 19.161C2.36543 20.6788 5.16758 21.5577 8.17784 21.5577C17.9852 21.5577 23.3528 13.4303 23.3528 6.38337C23.3528 6.14921 23.3476 5.92231 23.3379 5.69291C24.3796 4.94778 25.2826 4.00741 25.9975 2.93693L25.9999 2.93452L25.9995 2.93483L25.9995 2.93467Z" fill="white"/>
</svg>
